<?xml version="1.0" encoding="UTF-8" standalone="no"?>
<!-- Created with Inkscape (http://www.inkscape.org/) -->

<svg
   width="78.856468mm"
   height="85.227684mm"
   viewBox="0 0 78.856468 85.227684"
   version="1.1"
   id="svg228"
   xml:space="preserve"
   sodipodi:docname="lbd-cat-logo.svg"
   inkscape:version="1.2.2 (b0a8486541, 2022-12-01)"
   inkscape:export-filename="lbd-cat-logo-export.svg"
   inkscape:export-xdpi="96"
   inkscape:export-ydpi="96"
   xmlns:inkscape="http://www.inkscape.org/namespaces/inkscape"
   xmlns:sodipodi="http://sodipodi.sourceforge.net/DTD/sodipodi-0.dtd"
   xmlns="http://www.w3.org/2000/svg"
   xmlns:svg="http://www.w3.org/2000/svg"><sodipodi:namedview
     id="namedview230"
     pagecolor="#ffffff"
     bordercolor="#000000"
     borderopacity="0.25"
     inkscape:showpageshadow="2"
     inkscape:pageopacity="0.0"
     inkscape:pagecheckerboard="0"
     inkscape:deskcolor="#d1d1d1"
     inkscape:document-units="mm"
     showgrid="false"
     inkscape:zoom="1.6819304"
     inkscape:cx="318.08688"
     inkscape:cy="609.71607"
     inkscape:window-width="3840"
     inkscape:window-height="2117"
     inkscape:window-x="2154"
     inkscape:window-y="0"
     inkscape:window-maximized="1"
     inkscape:current-layer="layer1" /><defs
     id="defs225"><clipPath
       clipPathUnits="userSpaceOnUse"
       id="clipPath12790"><rect
         style="fill:#e07676;fill-opacity:0.45051;stroke-width:0.264583"
         id="rect12792"
         width="79.298241"
         height="85.445015"
         x="-91.793846"
         y="69.408882" /></clipPath></defs><g
     inkscape:label="Layer 1"
     inkscape:groupmode="layer"
     id="layer1"
     transform="translate(91.352076,-69.626226)"><path
       style="fill:#ffffff;fill-opacity:1;stroke-width:0.264583"
       d="m 65.016627,262.75479 v -2.11666 h 10.58333 c 6.87917,0 10.58333,0.0926 10.58333,0.26458 0,0.16872 -2.20485,0.26458 -6.08541,0.26458 h -6.08542 v 1.85209 c 0,1.05833 -0.11339,1.85208 -0.26458,1.85208 -0.15119,0 -0.26459,-0.79375 -0.26459,-1.85208 v -1.85209 h -3.96875 -3.96875 v 1.85209 c 0,1.05833 -0.11339,1.85208 -0.26458,1.85208 -0.15434,0 -0.26458,-0.88194 -0.26458,-2.11667 z M -56.030247,154.16126 c -0.873125,-0.2048 -2.06375,-0.54705 -2.645833,-0.76053 -1.499619,-0.55 -8.74872,-3.96945 -11.07387,-5.22362 -1.074447,-0.57955 -2.976089,-1.45516 -4.22587,-1.94581 -2.456842,-0.96451 -6.466084,-3.24064 -7.677201,-4.3585 -0.85372,-0.78798 -3.017937,-4.34288 -3.712117,-6.09744 -1.11828,-2.82649 -0.807437,-8.20523 0.857454,-14.83723 1.410991,-5.62059 1.702522,-7.46077 1.57221,-9.92395 -0.101262,-1.91407 -0.244007,-2.37803 -1.505331,-4.89271 -0.766403,-1.52797 -1.745401,-3.57972 -2.17555,-4.55944 -1.14862,-2.616125 -3.117868,-9.709128 -3.582315,-12.903058 -0.222189,-1.52797 -0.570296,-3.90922 -0.77357,-5.29167 -0.203277,-1.38245 -0.371907,-4.45524 -0.374738,-6.828421 l -0.0051,-4.31488 1.142735,-1.209461 c 1.000972,-1.059418 1.308971,-1.225433 2.482697,-1.338215 2.383205,-0.228994 2.979613,0.148336 7.900079,4.998149 2.484744,2.449068 5.938381,6.014008 7.674748,7.922098 4.130707,4.53921 7.74986,8.23938 8.6019,8.79444 0.605182,0.39425 1.862154,0.45193 11.112499,0.50989 l 10.430131,0.0654 1.270786,-0.63104 c 1.363548,-0.6771 4.746617,-3.87595 7.727237,-7.30646 3.42368,-3.94044 11.89466,-12.365331 13.49156,-13.418148 1.37686,-0.907756 1.73749,-1.030309 2.71798,-0.923666 1.61013,0.175125 3.11069,1.298247 3.66149,2.740512 0.7015,1.836833 0.37498,9.125492 -0.68305,15.247552 -1.46592,8.482193 -2.13101,10.725363 -4.77522,16.105618 -1.14378,2.32728 -1.99043,4.48289 -2.38004,6.05967 -0.5559,2.2498 -0.57895,2.62035 -0.2855,4.5898 0.17557,1.17832 0.66128,3.4521 1.07934,5.05282 1.34991,5.16864 1.68646,7.25811 1.68335,10.45105 -0.004,4.3542 -0.60338,6.41734 -2.80454,9.65729 -1.81382,2.66981 -3.3206,3.73125 -8.93397,6.29344 -1.0939,0.4993 -2.26487,0.99541 -2.60216,1.10246 -0.33729,0.10706 -3.34509,1.5584 -6.684006,3.22521 -3.869457,1.93167 -6.811459,3.22357 -8.113466,3.56282 -2.683539,0.69923 -6.340533,0.86745 -8.392706,0.38607 z m 8.202082,-1.07262 c 1.572784,-0.42148 4.058901,-1.55495 10.451041,-4.76485 1.819008,-0.91343 4.438388,-2.14141 5.820838,-2.72884 4.81911,-2.04771 6.39112,-2.95256 8.07113,-4.64574 3.08184,-3.106 4.2068,-6.06131 4.19301,-11.01524 -0.009,-3.20867 -0.35566,-5.39014 -1.64761,-10.36595 -0.42992,-1.65581 -0.92875,-3.97126 -1.10849,-5.14545 -0.30071,-1.96434 -0.27907,-2.33362 0.27079,-4.62268 0.40713,-1.69485 1.21284,-3.75278 2.52786,-6.45655 2.63157,-5.410725 3.34408,-7.850525 4.79055,-16.404158 0.481,-2.84437 0.70828,-5.35549 0.80222,-8.86355 0.12356,-4.613961 0.0998,-4.944259 -0.41511,-5.757101 -1.33772,-2.111978 -3.3154,-2.389402 -5.50755,-0.772589 -1.26829,0.935414 -8.43239,8.08841 -11.30972,11.29219 -6.118769,6.81296 -8.181346,8.7431 -10.090746,9.442813 -0.829292,0.30389 -3.042439,0.37087 -11.478421,0.34738 l -10.45104,-0.0291 -1.076087,-0.630003 c -0.591847,-0.3465 -2.272607,-1.91767 -3.735025,-3.49148 -7.976699,-8.58431 -10.396308,-11.11733 -13.647164,-14.286829 -2.853121,-2.78172 -3.800898,-3.548038 -4.681458,-3.785147 -1.981215,-0.533488 -4.082353,0.634468 -4.51635,2.510496 -0.74718,3.229816 0.69178,15.73317 2.555399,22.204243 1.267119,4.39985 1.686057,5.470775 3.876516,9.909515 l 1.909585,3.86957 -0.02392,3.175 c -0.02154,2.85961 -0.144635,3.64887 -1.239157,7.94535 -1.474455,5.78786 -1.884463,8.67704 -1.719006,12.11311 0.118856,2.46828 0.193336,2.74541 1.353253,5.03513 0.675109,1.33269 1.734498,2.9733 2.354191,3.64579 1.285095,1.39458 4.905089,3.63805 7.384646,4.5766 0.923766,0.34966 4.383352,1.95586 7.687969,3.56935 6.796571,3.31844 8.151751,3.89367 10.395772,4.41271 1.955172,0.45223 5.974055,0.31308 8.202082,-0.28399 z m -5.718212,-2.10587 c -0.06482,-0.0648 -0.947872,-0.24723 -1.962326,-0.40535 -2.497116,-0.38921 -3.997822,-0.90819 -5.845304,-2.02147 -1.827237,-1.10108 -8.680733,-4.59196 -12.273521,-6.25161 -2.521136,-1.16462 -4.268555,-2.43063 -4.799103,-3.47697 -0.186997,-0.3688 -0.01791,-0.27665 0.496893,0.27079 1.057116,1.12414 2.370153,1.90652 5.445229,3.24458 2.925294,1.27288 8.317378,4.00237 11.294887,5.71751 2.351418,1.35449 3.854474,1.82713 7.18418,2.25908 2.16934,0.28142 2.598949,0.26786 3.497609,-0.1104 0.563475,-0.23717 1.539959,-0.43122 2.169967,-0.43122 0.857702,0 1.76353,-0.32396 3.605709,-1.28955 6.702293,-3.51307 10.277361,-5.29208 11.715941,-5.83003 0.87053,-0.32553 2.65646,-1.14458 3.96875,-1.8201 6.90766,-3.55588 8.06093,-8.38132 5.06286,-21.18358 -0.21646,-0.9243 -0.44988,-1.73687 -0.51871,-1.8057 -0.0688,-0.0688 -2.13039,0.53081 -4.58125,1.33254 -2.45085,0.80173 -5.33078,1.72379 -6.39983,2.04903 -3.530573,1.0741 -5.851543,3.12154 -7.017112,6.1901 -0.221101,0.58209 -0.664342,2.07037 -0.984982,3.3073 -0.839399,3.23813 -1.759048,4.88581 -3.913428,7.01145 -4.029041,3.97529 -5.809909,4.01168 -9.849177,0.20123 -3.120512,-2.94373 -3.768161,-4.17532 -4.203668,-7.99379 -0.294452,-2.58174 -0.975823,-3.91991 -2.841532,-5.58064 -2.048066,-1.82306 -3.405024,-2.5588 -5.575713,-3.02314 -2.140058,-0.45779 -8.056002,-2.27734 -7.902724,-2.43061 0.04919,-0.0492 1.508554,0.31153 3.243042,0.80161 2.915631,0.8238 4.415422,1.19038 6.671277,1.63062 0.958297,0.18701 3.37257,2.02366 4.896877,3.72527 1.299424,1.45058 1.751184,2.62053 2.059453,5.33348 0.346141,3.04628 1.080979,4.32331 4.139578,7.19391 3.667849,3.44239 4.839942,3.57137 7.79606,0.85788 3.639526,-3.34081 3.928996,-3.83673 5.378431,-9.2143 0.647489,-2.40225 0.820285,-2.81687 1.92513,-4.61927 0.930415,-1.51785 3.731532,-3.31331 6.139328,-3.9352 0.65403,-0.16893 3.42087,-1.0393 6.14853,-1.93416 3.29646,-1.08147 5.04784,-1.53857 5.22319,-1.36322 0.14509,0.14509 0.3741,0.79468 0.5089,1.44352 0.1348,0.64885 0.56704,2.72754 0.96051,4.61931 1.75379,8.43195 0.44084,13.88903 -4.0286,16.7443 -1.32131,0.84411 -4.75015,2.48668 -5.9036,2.8281 -0.3638,0.10768 -3.10224,1.45782 -6.085415,3.0003 -2.983176,1.54248 -5.964118,3.08013 -6.624314,3.417 -0.660196,0.33687 -1.850821,0.67968 -2.645833,0.76179 -0.795012,0.0821 -1.894372,0.31764 -2.44302,0.52339 -0.943334,0.35375 -2.877465,0.51192 -3.133169,0.25622 z m -0.499496,-13.81998 c -2.883664,-2.1885 -3.813102,-3.70687 -4.046391,-6.6103 -0.171696,-2.13689 -0.886264,-4.03775 -2.321208,-6.17477 -1.189693,-1.77178 -3.662534,-4.1591 -5.274066,-5.09168 -1.102741,-0.63814 -6.867273,-2.84319 -8.994354,-3.44052 -0.508511,-0.1428 -1.136124,-0.40782 -1.394694,-0.58893 -0.949505,-0.66506 -2.575536,-2.28563 -2.575536,-2.56688 0,-0.15929 0.247153,0.0246 0.54923,0.40863 1.02789,1.30675 2.752451,2.18444 7.038698,3.58224 5.045887,1.64554 6.962412,2.70501 9.218218,5.09592 2.710521,2.87285 4.344521,6.45735 4.35661,9.55707 0.0068,1.73479 1.257718,3.51955 3.809904,5.43567 1.125942,0.84533 1.625957,0.72003 3.256129,-0.816 1.941644,-1.82952 2.513772,-2.78108 3.383986,-5.62824 1.535242,-5.02297 1.765639,-5.60009 2.90241,-7.2702 1.070885,-1.57331 2.812542,-3.16662 4.308282,-3.94133 0.823439,-0.42649 4.411299,-1.63051 9.859869,-3.30879 l 4.6302,-1.4262 0.16036,-2.34257 c 0.24573,-3.58988 0.8582,-5.51168 3.36054,-10.54465 1.74396,-3.507635 2.96513,-7.434225 3.75746,-12.081878 1.47431,-8.64804 1.92055,-13.388978 1.32748,-14.103584 -0.50124,-0.603956 -1.23676,-0.494596 -2.49476,0.370933 -1.16119,0.798917 -5.93805,5.578841 -11.38743,11.394741 -4.24548,4.53102 -7.107943,7.085983 -8.858651,7.907023 l -1.475412,0.69194 H -52.19379 -63.43858 l -1.305367,-0.66146 c -0.717952,-0.36381 -2.326415,-1.67349 -3.574359,-2.91042 -2.788899,-2.764273 -9.472338,-9.669703 -11.262723,-11.636813 -2.643362,-2.90428 0.6116,0.16829 7.345546,6.93393 5.159113,5.183413 6.843609,6.716963 7.937499,7.226243 l 1.388571,0.64647 10.666818,0.003 10.66682,0.003 1.900888,-0.88624 c 1.594284,-0.74329 2.45596,-1.43678 5.342241,-4.299483 1.89274,-1.87728 4.63117,-4.70974 6.08541,-6.29436 3.62423,-3.94915 7.52854,-7.745283 8.90574,-8.658982 1.27196,-0.843883 1.98551,-0.946287 2.74156,-0.393454 0.97409,0.712269 0.48389,7.140866 -1.17224,15.373146 -1.1515,5.723883 -2.1369,8.868143 -3.8143,12.170828 -2.11279,4.15995 -2.8769,6.59724 -3.06617,9.78015 l -0.15677,2.6364 -4.49792,1.39851 c -4.13719,1.28636 -8.765634,2.84661 -10.054163,3.38927 -1.174948,0.49482 -3.270726,2.31716 -4.175273,3.63052 -1.126937,1.63626 -1.711338,3.03141 -2.854319,6.81411 -1.057482,3.49974 -1.674718,4.5777 -3.688985,6.44256 -1.862042,1.72392 -2.550462,1.86041 -3.965797,0.78627 z M -78.734047,109.6272 c -0.06224,-0.10915 -0.198615,-0.67469 -0.303059,-1.25678 -0.245314,-1.36714 -1.098585,-3.39121 -2.063462,-4.89479 -0.696947,-1.08606 -0.704424,-1.12091 -0.08513,-0.39687 0.924893,1.08133 1.948177,3.30451 2.387195,5.18642 0.334163,1.43242 0.354936,1.87143 0.06445,1.36202 z"
       id="path10291"
       clip-path="url(#clipPath12790)" /></g>
</svg>
